# xmcd
#
# Track frame offsets:
#	150
#	27635
#	50024
#	72752
#	88053
#	106434
#	138388
#	156112
#	180866
#	198796
#	263550
#	288082
#	314905
#
# Disc length: 4413 seconds
#
# Revision: 0
# Processed by: cddbd v1.5.1PL0 Copyright (c) Steve Scherf et al.
# Submitted via: dBpowerAMP V4.0
#
DISCID=b6113b0d
DTITLE=Atlanta Rythm Section - Are You Ready?
DYEAR=1979
DGENRE=Southern Rock
TTITLE0=Sky High
TTITLE1=Champagne Jam
TTITLE2=I'm Noy Gonna Let It Bother Me Tonight
TTITLE3=Large Time
TTITLE4=Back Up Against The Wall
TTITLE5=Angel (What In The World's Come Over Us?)
TTITLE6=Conversation
TTITLE7=Imaginary Lover
TTITLE8=Doraville
TTITLE9=Another Man's Woman
TTITLE10=Georgia Rythm
TTITLE11=So Into You
TTITLE12=Long Tall Sally
EXTD=
EXTT0=
EXTT1=
EXTT2=
EXTT3=
EXTT4=
EXTT5=
EXTT6=
EXTT7=
EXTT8=
EXTT9=
EXTT10=
EXTT11=
EXTT12=
PLAYORDER=
